<?xml version="1.0" encoding="UTF-8"?>
<svg width="308px" height="301px" viewBox="0 0 308 301" version="1.1" xmlns="http://www.w3.org/2000/svg" xmlns:xlink="http://www.w3.org/1999/xlink">
    <!-- Generator: Sketch 44.1 (41455) - http://www.bohemiancoding.com/sketch -->
    <title>mandala-logo</title>
    <desc>Created with Sketch.</desc>
    <defs></defs>
    <g id="Page-1" stroke="none" stroke-width="1" fill="none" fill-rule="evenodd">
        <g id="mandala-logo">
            <polygon id="Path" fill="#FC5E21" points="125.680772 36.2677483 98.6336838 39.8774984 80.0433669 54.378987 43.2564104 102.895027 31.2440454 118.383834 24.4223885 136.922077 29.1256866 156.32891 42.6773507 210.202294 45.8330179 231.273403 55.8145079 247.245453 71.8178026 252.548641 130.529877 280.810088 143.244195 290.881145 160.426439 288.03792 182.141179 281.818235 232.433975 254.852382 253.109323 247.955739 262.047256 233.085568 268.346093 216.574034 265.761153 201.995476 284.147341 135.307792 278.640025 117.450673 265.517448 103.83652 231.217533 60.1612525 216.380689 43.6330548 200.971035 36.361481 185.319759 37.4133701 172.261753 37.6299968"></polygon>
            <circle id="svg_39" fill-opacity="0" fill="#FC5E21" fill-rule="nonzero" cx="153.062403" cy="156.965627" r="122.105573"></circle>
            <circle id="svg_47" fill-opacity="0" fill="#FC5E21" fill-rule="nonzero" cx="61.606811" cy="138.180149" r="38.0653"></circle>
            <circle id="svg_54" fill-opacity="0" fill="#FC5E21" fill-rule="nonzero" cx="80.886638" cy="215.793814" r="38.0653"></circle>
            <circle id="svg_53" fill-opacity="0" fill="#FC5E21" fill-rule="nonzero" cx="151.57934" cy="250.892988" r="38.0653"></circle>
            <circle id="svg_52" fill-opacity="0" fill="#FC5E21" fill-rule="nonzero" cx="225.73252" cy="217.276879" r="38.0653"></circle>
            <circle id="svg_51" fill-opacity="0" fill="#FC5E21" fill-rule="nonzero" cx="245.012348" cy="136.202737" r="38.0653"></circle>
            <circle id="svg_50" fill-opacity="0" fill="#FC5E21" fill-rule="nonzero" cx="195.576893" cy="74.408418" r="38.0653"></circle>
            <circle id="svg_49" fill-opacity="0" fill="#FC5E21" fill-rule="nonzero" cx="113.51404" cy="73.419709" r="38.0653"></circle>
            <path d="M99.241415,113.423824 C141.473816,163.927732 57.591365,166.637112 34.054101,62.401702 C140.891465,60.210537 158.411503,142.287662 99.241415,113.423824 Z" id="svg_40" fill="#C1F7DC" fill-rule="nonzero"></path>
            <path d="M84.593733,173.517466 C150.374962,170.862207 101.351128,238.981734 4.39873,194.045601 C67.836338,108.053198 143.560287,144.240071 84.593733,173.517466 Z" id="svg_41" fill="#C1F7DC" fill-rule="nonzero"></path>
            <path d="M122.422448,223.068023 C161.843362,170.340308 183.796983,251.344288 87.783473,298.253023 C61.047914,194.791758 136.884385,158.841293 122.422448,223.068023 L122.422448,223.068023 Z" id="svg_42" fill="#C1F7DC" fill-rule="nonzero"></path>
            <path d="M184.11931,224.618646 C166.765048,161.112347 244.151048,193.593316 222.125943,298.158693 C124.087572,255.643976 142.352141,173.729314 184.11931,224.618646 Z" id="svg_43" fill="#C1F7DC" fill-rule="nonzero"></path>
            <path d="M224.496514,173.858066 C165.171061,145.314922 240.439961,108.19082 304.940168,193.389099 C208.553067,239.525312 158.687392,172.019602 224.496514,173.858066 Z" id="svg_44" fill="#C1F7DC" fill-rule="nonzero"></path>
            <path d="M210.049325,113.076113 C151.071115,142.330021 168.048816,60.139 274.898319,61.624672 C252.049834,166.013226 168.151322,163.857781 210.049325,113.076113 Z" id="svg_45" fill="#C1F7DC" fill-rule="nonzero"></path>
            <path d="M152.9837,87.223552 C138.05088,151.41038 83.872631,86.278616 154.115432,4.450598 C222.094769,88.168489 166.156049,151.794654 152.9837,87.223552 Z" id="svg_46" fill="#C1F7DC" fill-rule="nonzero"></path>
            <circle id="svg_56" fill="#C45AB3" fill-rule="nonzero" cx="153.803911" cy="158.201502" r="80.332609"></circle>
            <circle id="svg_57" fill="#FC5E21" fill-rule="nonzero" cx="153.803948" cy="157.707179" r="67.973756"></circle>
            <circle id="svg_55" fill="#70146A" fill-rule="nonzero" cx="154.051092" cy="157.954325" r="46.469325"></circle>
            <path d="M154.051324,109.062623 C127.059539,109.062623 105.110176,131.011987 105.110176,158.003771 C105.110176,184.995555 127.05954,206.944919 154.051324,206.944919 C181.043108,206.944919 202.992472,184.995555 202.992472,158.003771 C202.992472,131.011987 181.043108,109.062623 154.051324,109.062623 Z M154.051324,203.682177 C128.839217,203.682177 108.372919,183.215879 108.372919,158.003772 C108.372919,132.791665 128.839217,112.325367 154.051324,112.325367 C179.263431,112.325367 199.729729,132.791665 199.729729,158.003772 C199.729729,183.215879 179.263431,203.682177 154.051324,203.682177 Z" id="svg_2" fill="#70146A" fill-rule="nonzero"></path>
            <circle id="svg_3" fill="#C1F7DC" fill-rule="nonzero" cx="153.55697" cy="100.85633" r="4.152578"></circle>
            <circle id="svg_4" fill="#C1F7DC" fill-rule="nonzero" transform="translate(142.027128, 102.552674) rotate(-78.001279) translate(-142.027128, -102.552674) " cx="142.027128" cy="102.552674" r="4.15278503"></circle>
            <circle id="svg_5" fill="#C1F7DC" fill-rule="nonzero" transform="translate(130.796220, 105.808038) rotate(-23.999141) translate(-130.796220, -105.808038) " cx="130.79622" cy="105.808038" r="4.15234795"></circle>
            <circle id="svg_6" fill="#C1F7DC" fill-rule="nonzero" transform="translate(120.554005, 111.789308) rotate(-36.001256) translate(-120.554005, -111.789308) " cx="120.554005" cy="111.789308" r="4.15256119"></circle>
            <circle id="svg_7" fill="#C1F7DC" fill-rule="nonzero" transform="translate(111.595144, 119.736046) rotate(-47.999585) translate(-111.595144, -119.736046) " cx="111.595144" cy="119.736046" r="4.15235891"></circle>
            <circle id="svg_8" fill="#C1F7DC" fill-rule="nonzero" transform="translate(104.607515, 129.424316) rotate(-59.999272) translate(-104.607515, -129.424316) " cx="104.607515" cy="129.424316" r="4.15249093"></circle>
            <circle id="svg_9" fill="#C1F7DC" fill-rule="nonzero" transform="translate(99.733659, 140.284891) rotate(-72.001696) translate(-99.733659, -140.284891) " cx="99.7336587" cy="140.284891" r="4.15273221"></circle>
            <circle id="svg_10" fill="#C1F7DC" fill-rule="nonzero" transform="translate(97.224570, 151.968537) rotate(-84.001491) translate(-97.224570, -151.968537) " cx="97.2245703" cy="151.968537" r="4.15247951"></circle>
            <circle id="svg_11" fill="#C1F7DC" fill-rule="nonzero" transform="translate(97.289875, 163.930595) rotate(-5.998509) translate(-97.289875, -163.930595) " cx="97.2898746" cy="163.930595" r="4.15247951"></circle>
            <circle id="svg_12" fill="#C1F7DC" fill-rule="nonzero" transform="translate(99.767690, 175.608210) rotate(-17.998304) translate(-99.767690, -175.608210) " cx="99.7676902" cy="175.60821" r="4.15273221"></circle>
            <circle id="svg_13" fill="#C1F7DC" fill-rule="nonzero" transform="translate(104.584775, 186.473283) rotate(-30.000728) translate(-104.584775, -186.473283) " cx="104.584775" cy="186.473283" r="4.15249093"></circle>
            <circle id="svg_14" fill="#C1F7DC" fill-rule="nonzero" transform="translate(111.622670, 196.176553) rotate(-41.996582) translate(-111.622670, -196.176553) " cx="111.62267" cy="196.176553" r="4.15266752"></circle>
            <circle id="svg_15" fill="#C1F7DC" fill-rule="nonzero" transform="translate(120.517620, 204.143114) rotate(-53.998744) translate(-120.517620, -204.143114) " cx="120.51762" cy="204.143114" r="4.15256119"></circle>
            <circle id="svg_16" fill="#C1F7DC" fill-rule="nonzero" transform="translate(130.773727, 210.130643) rotate(-66.000859) translate(-130.773727, -210.130643) " cx="130.773727" cy="210.130643" r="4.15234795"></circle>
            <circle id="svg_17" fill="#C1F7DC" fill-rule="nonzero" transform="translate(142.200477, 213.833233) rotate(-78.000088) translate(-142.200477, -213.833233) " cx="142.200477" cy="213.833233" r="4.15237885"></circle>
            <circle id="svg_18" fill="#C1F7DC" fill-rule="nonzero" cx="154.051324" cy="215.052343" r="4.152578"></circle>
            <circle id="svg_19" fill="#C1F7DC" fill-rule="nonzero" transform="translate(165.934897, 213.880583) rotate(-11.998721) translate(-165.934897, -213.880583) " cx="165.934897" cy="213.880583" r="4.15278503"></circle>
            <circle id="svg_20" fill="#C1F7DC" fill-rule="nonzero" transform="translate(177.252394, 210.102169) rotate(-23.999141) translate(-177.252394, -210.102169) " cx="177.252394" cy="210.102169" r="4.15234795"></circle>
            <circle id="svg_21" fill="#C1F7DC" fill-rule="nonzero" transform="translate(187.579471, 204.196286) rotate(-36.001256) translate(-187.579471, -204.196286) " cx="187.579471" cy="204.196286" r="4.15256119"></circle>
            <circle id="svg_22" fill="#C1F7DC" fill-rule="nonzero" transform="translate(196.441506, 196.188595) rotate(-47.999585) translate(-196.441506, -196.188595) " cx="196.441506" cy="196.188595" r="4.15235891"></circle>
            <circle id="svg_23" fill="#C1F7DC" fill-rule="nonzero" transform="translate(203.445499, 186.519851) rotate(-59.999272) translate(-203.445499, -186.519851) " cx="203.445499" cy="186.519851" r="4.15249093"></circle>
            <circle id="svg_24" fill="#C1F7DC" fill-rule="nonzero" transform="translate(208.340958, 175.630901) rotate(-72.001696) translate(-208.340958, -175.630901) " cx="208.340958" cy="175.630901" r="4.15273221"></circle>
            <circle id="svg_25" fill="#C1F7DC" fill-rule="nonzero" transform="translate(210.809906, 163.975679) rotate(-84.001491) translate(-210.809906, -163.975679) " cx="210.809906" cy="163.975679" r="4.15247951"></circle>
            <circle id="svg_26" fill="#C1F7DC" fill-rule="nonzero" transform="translate(210.785139, 151.983665) rotate(-5.998509) translate(-210.785139, -151.983665) " cx="210.785139" cy="151.983665" r="4.15247951"></circle>
            <circle id="svg_27" fill="#C1F7DC" fill-rule="nonzero" transform="translate(208.331892, 140.331361) rotate(-17.998304) translate(-208.331892, -140.331361) " cx="208.331892" cy="140.331361" r="4.15273221"></circle>
            <circle id="svg_28" fill="#C1F7DC" fill-rule="nonzero" transform="translate(203.484355, 129.427777) rotate(-30.000728) translate(-203.484355, -129.427777) " cx="203.484355" cy="129.427777" r="4.15249093"></circle>
            <circle id="svg_29" fill="#C1F7DC" fill-rule="nonzero" transform="translate(196.435446, 119.759201) rotate(-42.000415) translate(-196.435446, -119.759201) " cx="196.435446" cy="119.759201" r="4.15235891"></circle>
            <circle id="svg_30" fill="#C1F7DC" fill-rule="nonzero" transform="translate(187.628036, 111.854523) rotate(-53.998744) translate(-187.628036, -111.854523) " cx="187.628036" cy="111.854523" r="4.15256119"></circle>
            <circle id="svg_31" fill="#C1F7DC" fill-rule="nonzero" transform="translate(177.252542, 105.804676) rotate(-66.000859) translate(-177.252542, -105.804676) " cx="177.252542" cy="105.804676" r="4.15234795"></circle>
            <circle id="svg_32" fill="#C1F7DC" fill-rule="nonzero" transform="translate(165.452594, 102.123926) rotate(-78.001279) translate(-165.452594, -102.123926) " cx="165.452594" cy="102.123926" r="4.15278503"></circle>
            <path d="M307.301384,192.905237 L306.114932,191.323301 C297.11767,179.45878 288.21928,170.263777 279.815244,163.243935 C285.945246,162.74958 289.20799,161.068773 290.097829,158.201514 C291.284281,154.345545 287.23057,150.094091 284.363311,147.622316 C291.18541,144.952799 294.349283,142.184411 294.349283,138.822796 C294.250412,134.27473 287.823797,131.110857 284.066698,129.627792 C289.702345,123.201177 291.482024,118.751981 289.702345,115.489238 C287.428312,111.435527 280.309599,111.831011 276.157017,112.325366 C278.035566,104.811169 277.541211,100.361974 274.673952,98.384554 C271.905564,96.506005 267.851853,97.98907 264.490238,99.768748 C269.236046,89.486163 273.586371,77.028416 276.552501,61.70341 L276.947985,59.824861 L274.970565,59.72599 C260.041043,59.330506 247.385554,60.615829 236.608614,62.790991 C239.970228,57.74857 240.761196,54.090342 239.080389,51.618567 C236.806356,48.256953 230.972966,48.751308 227.215868,49.542276 C229.39103,42.621306 229.193288,38.369852 226.523771,36.293561 C222.964415,33.525173 216.438928,36.590174 212.978443,38.666465 C211.495378,30.262429 209.023603,26.109847 205.464246,25.516621 C200.91618,24.824524 196.664726,30.559042 194.588435,34.118399 C189.842627,27.889526 186.085528,25.516621 182.822785,26.604202 C179.658913,27.592912 178.175848,31.646623 177.582622,35.403722 C172.540201,25.318879 165.421488,14.146456 155.435516,2.183064 L154.150193,0.699999 L152.86487,2.183064 C143.175511,13.652101 136.254541,24.429041 131.21212,34.118399 C129.333571,28.28501 126.960667,25.41775 123.994537,25.220008 C119.940826,24.923395 116.678082,29.768074 114.898404,33.22856 C110.844693,27.197429 107.384207,24.725653 104.121464,25.516621 C99.672269,26.604202 98.090333,33.525173 97.497107,37.578884 C89.98291,33.525173 85.237102,32.833076 82.468714,35.304851 C79.008229,38.369852 80.985649,45.290823 82.468714,49.245663 C74.657904,49.047921 70.505322,50.530986 69.219999,53.793729 C68.033547,56.85873 70.30758,60.615828 72.878226,63.384217 C61.804673,61.011313 48.654829,59.627119 33.03321,60.022603 L31.05579,60.121474 L31.451274,62.000023 C34.318533,76.632932 38.471115,88.794066 42.920311,98.780038 C37.185793,96.604876 33.527565,96.604876 31.451274,98.878909 C28.682886,101.845039 30.462564,107.381816 32.0445,110.941172 C24.728045,110.347946 20.674334,111.534398 19.29014,114.599399 C17.411591,118.751981 21.761915,124.387629 24.629174,127.353759 C16.818364,130.715373 13.259008,133.978116 13.45675,137.636344 C13.753363,142.283281 20.37772,145.05167 24.332561,146.336993 C19.389011,152.269253 17.807075,156.520707 19.586753,159.486837 C21.069818,162.057483 24.530303,162.74958 27.990789,162.74958 C28.485144,162.74958 28.880628,162.74958 29.374983,162.74958 C20.674334,169.868292 11.281589,179.359909 1.987714,191.817656 L0.801262,193.399592 L2.482069,194.289431 C15.730784,201.11153 27.793047,205.461855 38.372244,208.230243 C33.132081,211.394115 30.858047,214.261374 31.253532,217.227505 C31.846758,221.182345 37.383534,223.357507 41.041762,224.247346 C35.999341,229.58638 34.417405,233.541221 35.90047,236.507351 C37.87789,240.561062 45.095474,240.659933 49.149185,240.264449 C46.875152,248.470743 47.171765,253.315422 50.236766,255.391713 C53.993864,258.06123 60.321609,254.600745 63.782094,252.326712 C65.36403,259.93978 67.736934,263.696878 71.098549,264.191233 C71.296291,264.191233 71.592904,264.191233 71.790646,264.191233 C74.855647,264.191233 77.624035,261.323974 79.700327,258.456715 C79.898069,269.72801 81.381134,282.877854 85.335974,298.005118 L85.830329,299.883667 L87.610007,299.092699 C101.254206,293.061568 112.130017,286.338339 120.830665,279.713982 C120.039697,285.745113 120.830665,289.30447 123.500182,290.886406 C126.960667,292.962697 132.003089,289.897696 135.06809,287.623663 C136.155671,294.841246 138.133091,298.598345 141.395834,299.290442 C145.845029,300.279152 150.294225,294.643505 152.568258,291.28189 C156.918582,297.21415 160.477939,300.08141 163.641811,300.08141 C164.136166,300.08141 164.630521,299.982539 165.124876,299.883668 C169.574071,298.598345 170.859394,291.479632 171.156007,287.425921 C178.076977,290.985277 182.526173,291.479632 184.997948,289.106728 C187.370852,286.832695 186.975368,282.482371 185.887787,278.923014 C194.786178,285.843984 206.057472,292.863826 220.294897,299.19157 L222.074575,299.982538 L222.56893,298.103989 C226.326028,283.668822 227.907964,271.013333 228.105706,260.038651 C231.46732,263.598007 234.235708,265.278814 236.707484,265.278814 C237.30071,265.278814 237.893936,265.179943 238.487162,264.982201 C242.24426,263.499136 243.035228,257.665746 243.23297,253.908648 C249.560714,257.566875 253.713297,258.357843 256.283943,256.182681 C259.843299,253.315422 258.261363,246.29558 256.97604,242.439611 C265.478947,242.835095 270.125884,241.450901 271.510078,237.990416 C273.289756,233.738963 268.543948,228.301057 265.478947,225.433798 C272.597659,222.171055 275.761532,219.106054 275.464919,215.645568 C275.168306,212.382825 271.510079,210.009921 268.049593,208.526856 C279.024275,205.857339 291.482022,201.408144 305.323963,194.289431 L307.301383,192.905237 L307.301384,192.905237 Z M261.919592,209.515566 C261.919592,209.515566 262.018463,209.515566 262.018463,209.515566 C262.413947,211.987341 265.67669,241.648643 228.204579,251.535744 C228.105708,248.273001 227.809095,245.208 227.512482,242.34074 C242.442004,236.012996 252.329105,224.445088 254.80088,210.702018 C257.173784,210.306534 259.447817,209.91105 261.919592,209.515566 Z M224.44748,225.63154 C223.359899,221.577829 222.074576,218.216214 220.986995,215.546697 C222.865544,213.964761 224.546351,212.283954 226.029416,210.603147 C229.094417,211.097502 233.049257,211.492986 237.795066,211.690728 C234.828936,217.128633 230.280869,221.973313 224.44748,225.63154 L224.44748,225.63154 Z M181.043108,274.473817 C181.043108,274.473817 181.043108,274.473817 181.043108,274.473817 C179.362301,276.352366 158.401647,297.510762 127.158409,274.374946 C129.630184,272.298655 131.904217,270.123493 133.980508,268.146073 C141.593576,272.298655 149.602127,274.374946 157.116324,274.374946 C163.64181,274.374946 169.969555,272.79301 175.704073,269.728009 C177.38488,271.211074 179.164558,272.79301 181.043107,274.473817 L181.043108,274.473817 Z M145.054062,255.193971 C147.525837,251.733486 149.404386,248.668485 150.78858,246.196709 C153.161484,246.691064 155.534388,246.987677 157.808421,247.086548 C159.390357,249.854936 161.466648,253.21655 164.333907,256.874778 C158.203905,258.06123 151.579547,257.468004 145.054061,255.193971 L145.054062,255.193971 Z M100.166625,221.874442 L110.745823,242.142998 C108.867274,241.747514 106.790983,241.846385 104.912434,242.538482 C102.242917,243.527192 100.067755,245.405741 98.782432,247.976387 C96.805012,252.128969 97.694851,256.973649 100.759852,260.137521 L93.937753,262.01607 C92.256946,241.549772 97.497109,227.411218 100.166626,221.874441 L100.166625,221.874442 Z M55.47693,210.89976 C58.344189,226.817992 67.341451,239.077997 80.293553,244.515902 C80.095811,246.789935 79.898069,249.162839 79.898069,251.733485 C79.898069,251.733485 79.898069,251.832356 79.898069,251.832356 C77.426294,251.634614 47.764992,248.273 46.479669,209.515565 C49.54467,210.108791 52.609671,210.603146 55.476931,210.899759 L55.47693,210.89976 Z M83.061941,227.707831 C78.316133,223.555249 74.657905,218.117343 72.383872,211.591857 C76.635325,211.394115 80.194682,210.998631 82.96307,210.504276 C84.050651,212.679438 85.335974,214.656858 86.720168,216.535407 C85.533716,219.402666 84.248393,223.159764 83.061941,227.707831 L83.061941,227.707831 Z M88.302104,212.976051 C87.610007,211.987341 87.016781,210.89976 86.423555,209.812179 C87.708878,209.515566 88.598717,209.218953 89.290814,209.021211 C89.488556,209.317824 89.686298,209.614437 89.982911,209.812179 C89.488556,210.504276 88.994201,211.492986 88.302104,212.976051 Z M34.516276,158.399255 C34.417405,158.399255 34.417405,158.399255 34.516276,158.399255 C33.033211,156.322964 17.21385,131.110857 46.578539,105.89875 C48.061604,108.766009 49.64354,111.435526 51.126605,113.907302 C40.448536,126.068436 36.493696,140.800216 40.349665,154.246673 C38.471116,155.531996 36.493696,156.91619 34.516276,158.399255 L34.516276,158.399255 Z M61.211448,127.551501 C63.979836,130.715373 66.550482,133.286019 68.725645,135.164569 C67.736935,137.339731 66.945967,139.613764 66.352741,141.887797 C63.28774,142.777636 59.629513,144.062959 55.279188,146.040379 C55.575801,139.712635 57.652092,133.483761 61.211448,127.551501 L61.211448,127.551501 Z M71.296291,137.339731 C72.285001,138.130699 73.075969,138.723925 73.669195,139.119409 C73.570324,139.514893 73.471453,139.811506 73.471453,140.20699 C72.680485,140.305861 71.494033,140.503603 70.010968,140.899087 C70.406452,139.613764 70.801936,138.427312 71.296291,137.339731 L71.296291,137.339731 Z M79.205972,64.768412 C79.205972,64.768412 79.107101,64.669541 79.205972,64.768412 C79.898069,62.296637 89.78517,34.217271 127.751636,41.533725 C126.466313,44.499855 125.279861,47.367114 124.390022,50.135503 C108.175177,49.344535 94.234365,55.474537 86.126942,66.844703 C83.95178,66.053735 81.578876,65.361638 79.205972,64.768412 Z M180.252141,41.237112 C182.526174,40.347273 210.704411,30.460172 228.698934,64.768412 C225.535062,65.55938 222.568932,66.54809 219.899414,67.437929 C210.407797,54.288085 196.96134,47.268244 182.921657,47.960341 C182.130689,45.785179 181.24085,43.610017 180.25214,41.237113 C180.25214,41.237113 180.25214,41.237113 180.25214,41.237113 L180.252141,41.237112 Z M204.376667,74.260028 C200.619569,76.237448 197.653439,78.214868 195.280534,79.895675 C193.401985,78.41261 191.325694,77.127287 189.249403,76.039706 C189.051661,72.875834 188.557306,68.920994 187.667467,64.372927 C193.698598,66.053734 199.433117,69.415348 204.376667,74.260028 Z M189.447145,79.895675 C190.534726,80.488901 191.523436,81.180998 192.611017,81.971966 C191.622307,82.762934 190.831339,83.455031 190.336984,83.949386 C190.040371,83.751644 189.644887,83.652773 189.348274,83.455031 C189.447145,82.565192 189.447145,81.37874 189.447145,79.895675 Z M211.791993,209.911049 C210.902154,210.899759 207.441669,210.306533 203.981183,207.142661 C203.783441,206.944919 203.585699,206.747177 203.387957,206.549435 L207.63941,201.803627 C207.837152,202.001369 208.034894,202.10024 208.232636,202.297982 C209.913443,203.781047 211.198766,205.560725 211.791992,207.142661 C212.088605,208.427984 212.187476,209.515565 211.791992,209.911049 L211.791993,209.911049 Z M194.094083,241.154287 L175.605205,237.594931 C185.591177,234.925414 194.78618,230.377348 202.893603,224.445087 L194.094083,241.154287 Z M154.051325,235.617511 C152.766002,235.617511 150.887453,232.651381 150.887453,227.905572 C150.887453,227.608959 150.887453,227.411217 150.887453,227.114604 L157.215197,227.114604 C157.215197,227.411217 157.215197,227.608959 157.215197,227.905572 C157.215197,232.65138 155.336648,235.617511 154.051325,235.617511 Z M154.051325,223.75299 C117.765665,223.75299 88.302105,194.28943 88.302105,158.00377 C88.302105,121.71811 117.765665,92.25455 154.051325,92.25455 C190.336985,92.25455 219.800545,121.71811 219.800545,158.00377 C219.800545,194.28943 190.336985,223.75299 154.051325,223.75299 L154.051325,223.75299 Z M105.209048,224.445087 C113.316471,230.377347 122.511474,234.925414 132.497446,237.594931 L114.008568,241.154287 L105.209048,224.445087 Z M96.310657,209.911049 C95.420818,208.922339 96.409528,205.560725 99.870013,202.396852 C100.067755,202.19911 100.265497,202.001368 100.463239,201.902497 L104.714692,206.648305 C104.51695,206.846047 104.319208,207.043789 104.121466,207.241531 C100.759852,210.306532 97.200496,210.899758 96.310656,209.911048 L96.310657,209.911049 Z M76.635327,154.741027 C78.513876,155.927479 81.084522,156.817318 83.754039,157.113931 C84.149523,157.113931 84.545007,157.113931 84.940491,157.212802 C84.940491,157.509415 84.940491,157.707157 84.940491,158.00377 C84.940491,158.300383 84.940491,158.498125 84.940491,158.794738 C84.545007,158.794738 84.149523,158.794738 83.754039,158.893609 C80.985651,159.190222 78.513876,159.98119 76.635327,161.266513 C75.94323,161.661997 75.448875,162.156352 74.95452,162.749578 C74.855649,161.167642 74.756778,159.684577 74.756778,158.102641 C74.756778,156.520705 74.855649,154.938769 74.95452,153.455704 C75.448875,153.851188 75.94323,154.246672 76.635327,154.741027 Z M89.290816,182.326038 C88.994203,182.424909 88.796461,182.52378 88.499848,182.622651 C86.423557,183.314748 84.248395,183.51249 82.567588,183.215877 C81.282265,183.018135 80.392426,182.52378 80.194684,181.930554 C79.7992,180.744102 82.073233,177.975714 86.522428,176.492649 C86.819041,176.393778 87.016783,176.294907 87.313396,176.294907 L89.290816,182.326038 L89.290816,182.326038 Z M85.533718,173.427647 C81.77662,174.614099 79.008232,176.69039 77.722908,178.964423 C76.93194,175.998293 76.239843,172.933292 75.745488,169.86829 C77.426295,171.153613 80.095812,171.84571 83.061943,171.84571 C83.75404,171.84571 84.446137,171.84571 85.138234,171.746839 C85.533718,171.746839 85.929202,171.647968 86.324686,171.549097 C86.423557,172.043452 86.522428,172.537807 86.621299,173.131033 C86.324686,173.229904 85.929202,173.328775 85.533718,173.427646 L85.533718,173.427647 Z M86.819041,119.147464 C87.115654,118.653109 87.906622,118.356496 89.093074,118.356496 C89.191945,118.356496 89.290816,118.356496 89.389687,118.356496 C91.070494,118.455367 93.146785,119.147464 95.025334,120.235045 C95.223076,120.333916 95.519689,120.531658 95.717431,120.630529 L92.553559,126.068434 C92.355817,125.969563 92.059204,125.870692 91.861462,125.67295 C89.982913,124.585369 88.302106,123.102304 87.412267,121.71811 C86.72017,120.7294 86.522428,119.74069 86.819041,119.147464 L86.819041,119.147464 Z M96.706142,117.367786 C94.333238,115.983592 91.762592,115.192624 89.58743,115.093753 C88.796462,115.093753 88.104365,115.093753 87.412268,115.291495 C89.093075,112.720849 90.872753,110.150203 92.850173,107.777298 C93.146786,110.347944 94.827593,113.412945 97.793723,115.983592 C98.090336,116.280205 98.48582,116.477947 98.782433,116.77456 C98.48582,117.170044 98.189207,117.664399 97.793723,118.059883 C97.398239,117.862141 97.101626,117.565528 96.706142,117.367786 L96.706142,117.367786 Z M110.844696,103.921329 C110.646954,103.723587 110.548083,103.525845 110.350341,103.328103 C107.581953,99.571005 107.384211,96.011648 108.372921,95.22068 C108.570663,95.121809 108.867276,95.022938 109.163889,95.022938 C110.646954,95.022938 113.2176,96.506003 115.491633,99.571004 C115.689375,99.768746 115.788246,99.966488 115.985988,100.263101 L110.844696,103.921328 L110.844696,103.921329 Z M107.680824,105.206652 C107.878566,105.503265 108.175179,105.898749 108.471792,106.195362 C108.076308,106.590846 107.680824,106.887459 107.28534,107.282943 C106.988727,106.98633 106.692114,106.689717 106.395501,106.393104 C103.528242,103.822458 100.265499,102.339393 97.694852,102.339393 C99.870014,100.164231 102.144047,98.08794 104.615822,96.11052 C104.319209,98.681166 105.40679,102.04278 107.680823,105.206653 L107.680824,105.206652 Z M81.183394,119.246335 L81.875491,100.361973 L100.166627,95.517294 C92.454688,102.240522 86.028073,110.249074 81.183394,119.246336 L81.183394,119.246335 Z M83.75404,121.520368 C83.951782,122.212465 84.248395,122.805691 84.74275,123.497788 C85.929202,125.376337 87.906622,127.156015 90.279526,128.540209 C90.67501,128.737951 90.971623,128.935693 91.367107,129.133435 C91.169365,129.62779 90.872752,130.122145 90.67501,130.6165 C90.279526,130.418758 89.884042,130.319887 89.488558,130.221016 C86.917912,129.331177 84.248395,129.133435 81.974361,129.430048 C81.183393,129.528919 80.491296,129.825532 79.799199,130.023274 C80.985651,127.156015 82.270974,124.288756 83.754039,121.520367 L83.75404,121.520368 Z M76.83307,149.896347 C76.931941,148.808766 79.403716,147.424572 83.061943,147.424572 C83.655169,147.424572 84.149524,147.424572 84.74275,147.523443 C85.039363,147.523443 85.237105,147.622314 85.533718,147.622314 L84.841621,153.950058 C84.545008,153.950058 84.347266,153.950058 84.050653,153.851187 C81.875491,153.653445 79.7992,152.961348 78.415006,151.972638 C77.426296,151.280541 76.734199,150.489573 76.83307,149.896347 L76.83307,149.896347 Z M71.592907,161.266513 C71.988391,171.74684 74.361295,181.63394 78.316135,190.730073 L64.07871,178.568939 L71.592907,161.266513 Z M79.898072,185.885394 C80.491298,186.182007 81.282266,186.379749 82.073234,186.47862 C82.765331,186.577491 83.358557,186.676362 84.149525,186.676362 C85.830332,186.676362 87.708881,186.379749 89.58743,185.786523 C89.982914,185.687652 90.378398,185.48991 90.773882,185.391039 C90.971624,185.885394 91.169366,186.379749 91.465979,186.874104 C91.070495,187.071846 90.773882,187.269588 90.378398,187.46733 C88.005494,188.851524 86.028074,190.631202 84.841622,192.509751 C84.446138,193.201848 84.149525,193.795074 83.852912,194.487171 C82.270976,191.619912 80.985653,188.752653 79.898072,185.885393 L79.898072,185.885394 Z M134.079384,234.6288 C131.014383,233.837832 128.048253,232.849122 125.180993,231.761541 C125.774219,231.464928 126.466316,231.069444 127.059542,230.575089 C128.83922,229.190895 130.421156,227.015733 131.508737,224.543958 C131.706479,224.148474 131.80535,223.75299 132.003092,223.357506 C132.497447,223.555248 132.991802,223.75299 133.486157,223.851861 C133.387286,224.247345 133.288415,224.642829 133.189544,225.038313 C132.398576,228.894282 132.79406,232.453639 134.079383,234.628801 L134.079384,234.6288 Z M122.709218,220.589117 C122.808089,220.391375 122.90696,220.094762 123.005831,219.89702 L128.740349,222.467666 C128.641478,222.764279 128.542607,222.962021 128.443736,223.159763 C127.553897,225.137183 126.268574,226.916861 124.983251,228.004442 C123.994541,228.79541 123.005831,229.190894 122.412605,228.894281 C121.325024,228.399926 120.830669,224.84057 122.709218,220.589116 L122.709218,220.589117 Z M119.743088,219.204923 C118.161152,222.764279 117.765668,226.224764 118.556636,228.69654 C115.788248,227.312346 113.118731,225.73041 110.548084,224.049603 C111.240181,223.950732 111.932278,223.654119 112.624375,223.357506 C114.601795,222.368796 116.579215,220.589118 118.260022,218.315085 C118.457764,218.018472 118.754377,217.622988 118.952119,217.326375 C119.446474,217.622988 119.841958,217.82073 120.336313,218.117343 C120.0397,218.512827 119.841958,218.908311 119.743087,219.204924 L119.743088,219.204923 Z M169.178591,76.830673 C164.235041,75.940834 159.192619,75.446479 154.051327,75.446479 C148.910035,75.446479 143.867613,75.940834 138.924063,76.830673 L154.051327,65.559378 L169.178591,76.830673 Z M171.749237,90.178259 C171.650366,90.474872 171.650366,90.672614 171.551495,90.969227 L165.322622,89.683904 C165.322622,89.387291 165.421493,89.189549 165.421493,88.892936 C165.915848,86.717774 166.805687,84.740354 167.794397,83.455031 C168.585365,82.466321 169.475204,81.971966 170.06843,82.070837 C171.452624,82.268579 172.639076,85.630193 171.749237,90.17826 L171.749237,90.178259 Z M165.322622,81.378739 C163.938428,83.158417 162.850847,85.531321 162.257621,88.200838 C162.15875,88.596322 162.059879,88.991806 162.059879,89.38729 C161.565524,89.288419 160.972298,89.288419 160.477943,89.189548 C160.477943,88.794064 160.477943,88.39858 160.477943,88.003096 C160.477943,84.048256 159.390362,80.785513 157.610684,78.808092 C160.774556,78.906963 163.839557,79.302447 166.904559,79.796802 C166.410204,80.192286 165.915849,80.686641 165.322623,81.378738 L165.322622,81.378739 Z M137.935353,82.070836 C138.034224,82.070836 138.034224,82.070836 138.133095,82.070836 C138.726321,82.070836 139.517289,82.565191 140.209386,83.45503 C141.296967,84.740353 142.186806,86.717773 142.58229,88.892935 C142.681161,89.189548 142.681161,89.38729 142.681161,89.683903 L136.452288,90.969226 C136.353417,90.672613 136.353417,90.474871 136.254546,90.178258 C135.463578,85.630192 136.65003,82.268577 137.935353,82.070835 L137.935353,82.070836 Z M145.845034,88.200838 C145.251808,85.531321 144.164227,83.059546 142.780033,81.378739 C142.285678,80.785513 141.692452,80.291158 141.198097,79.796803 C144.263098,79.302448 147.328099,79.005835 150.491972,78.808093 C148.712294,80.686642 147.624713,84.048256 147.624713,88.003097 C147.624713,88.398581 147.624713,88.794065 147.624713,89.189549 C147.130358,89.189549 146.537132,89.28842 146.042777,89.387291 C145.943906,88.991807 145.943906,88.596323 145.845035,88.200839 L145.845034,88.200838 Z M224.249742,157.11393 C227.01813,156.817317 229.489905,156.026349 231.368454,154.741026 C232.060551,154.345542 232.554906,153.851187 233.049261,153.257961 C233.148132,154.839897 233.247003,156.322962 233.247003,157.904898 C233.247003,159.486834 233.148132,161.06877 233.049261,162.551835 C231.269583,160.673286 228.105711,159.190221 224.249741,158.794737 C223.854257,158.794737 223.458773,158.695866 223.063289,158.695866 C223.063289,158.399253 223.063289,158.201511 223.063289,157.904898 C223.063289,157.608285 223.063289,157.311672 223.063289,157.11393 C223.458773,157.11393 223.854257,157.11393 224.249741,157.11393 L224.249742,157.11393 Z M222.470064,147.622313 C222.766677,147.622313 222.964419,147.523442 223.261032,147.523442 C227.907969,147.029087 231.071842,148.611023 231.269584,149.896346 C231.368455,150.489572 230.676358,151.28054 229.687648,152.071508 C228.303454,152.961347 226.227163,153.653444 224.052001,153.950057 C223.755388,153.950057 223.557646,153.950057 223.261033,154.048928 L222.470065,147.622313 L222.470064,147.622313 Z M230.478616,178.964422 C230.182003,178.371196 229.687648,177.77797 229.094422,177.184744 C227.512486,175.602808 225.238453,174.218614 222.568936,173.427646 C222.173452,173.328775 221.777968,173.229904 221.382484,173.131033 C221.481355,172.636678 221.580226,172.142323 221.679097,171.549097 C222.074581,171.647968 222.470065,171.647968 222.865549,171.746839 C223.557646,171.84571 224.249743,171.84571 224.94184,171.84571 C228.006841,171.84571 230.577487,171.153613 232.258295,169.86829 C231.961682,172.933291 231.269585,175.998292 230.478617,178.964423 L230.478616,178.964422 Z M215.549094,126.167304 L212.385222,120.630528 C212.582964,120.531657 212.879577,120.333915 213.077319,120.235044 C217.13103,117.86214 220.690387,118.059882 221.283613,119.147463 C221.97571,120.235044 220.294903,123.398916 216.241192,125.77182 C215.944579,125.870691 215.746837,125.969562 215.549095,126.167304 L215.549094,126.167304 Z M211.396512,117.367784 C211.001028,117.565526 210.704415,117.763268 210.308931,118.059881 C210.012318,117.664397 209.715705,117.170042 209.320221,116.774558 C209.616834,116.477945 210.012318,116.280203 210.308931,115.98359 C212.385222,114.105041 213.868287,111.929879 214.659255,109.853588 C214.955868,109.06262 215.054739,108.370523 215.15361,107.678426 C217.13103,110.05133 218.910708,112.621976 220.591515,115.192623 C218.218611,114.698268 214.758126,115.489236 211.396511,117.367785 L211.396512,117.367784 Z M220.789258,176.294904 C221.085871,176.393775 221.283613,176.393775 221.580226,176.492646 C223.656517,177.184743 225.535066,178.272324 226.721518,179.458776 C227.611357,180.348615 228.105712,181.337325 227.90797,181.930551 C227.710228,182.523777 226.820389,183.018132 225.535066,183.215874 C223.854259,183.512487 221.679097,183.215874 219.602806,182.622648 C219.306193,182.523777 219.108451,182.424906 218.811838,182.326035 L220.789258,176.294904 L220.789258,176.294904 Z M226.029421,129.430047 C223.854259,129.034563 221.184742,129.331176 218.515224,130.221015 C218.11974,130.319886 217.724256,130.517628 217.328772,130.616499 C217.13103,130.122144 216.933288,129.627789 216.636675,129.133434 C217.032159,128.935692 217.328772,128.73795 217.724256,128.540208 C221.08587,126.562788 223.458774,123.992142 224.249742,121.520367 C225.633936,124.288755 226.919259,127.057143 228.105711,130.023274 C227.611356,129.825532 226.820388,129.62779 226.02942,129.430048 L226.029421,129.430047 Z M207.936027,95.517292 L226.227163,100.361971 L226.91926,119.246333 C222.074581,110.249071 215.647965,102.24052 207.936027,95.517291 L207.936027,95.517292 Z M199.729733,95.121808 C200.817314,95.912776 200.520701,99.373261 197.752313,103.229231 C197.554571,103.426973 197.4557,103.624715 197.257958,103.822457 L192.116666,100.065359 C192.215537,99.867617 192.413279,99.669875 192.611021,99.373262 C195.379409,95.715035 198.642152,94.429712 199.729733,95.121809 L199.729733,95.121808 Z M200.42183,105.206651 C202.695863,102.042779 203.783444,98.780036 203.486831,96.209389 C205.859735,98.186809 208.232639,100.164229 210.407801,102.438262 C207.837155,102.438262 204.673283,103.822456 201.707152,106.491973 C201.410539,106.788586 201.113926,107.085199 200.817313,107.381812 C200.421829,106.986328 200.026345,106.689715 199.630861,106.294231 C199.927474,105.898747 200.125216,105.503263 200.421829,105.20665 L200.42183,105.206651 Z M174.91311,225.038311 C174.814239,224.642827 174.715368,224.247343 174.616497,223.851859 C175.110852,223.654117 175.605207,223.555246 176.099562,223.357504 C176.198433,223.752988 176.396175,224.148472 176.593917,224.543956 C177.681498,227.015731 179.263434,229.190893 181.043112,230.575087 C181.636338,231.069442 182.328435,231.464926 182.921661,231.761539 C180.054402,232.84912 177.088272,233.83783 174.02327,234.628798 C175.308593,232.453636 175.704077,228.89428 174.913109,225.03831 L174.91311,225.038311 Z M185.591179,228.89428 C184.997953,229.190893 184.009243,228.795409 183.020533,228.004441 C181.73521,226.91686 180.449887,225.137182 179.560048,223.159762 C179.461177,222.96202 179.362306,222.665407 179.263435,222.467665 L184.997953,219.897019 C185.096824,220.094761 185.195695,220.391374 185.294566,220.589116 C187.271986,224.840569 186.777631,228.399926 185.591179,228.894281 L185.591179,228.89428 Z M188.458438,219.204921 C188.260696,218.809437 188.062954,218.413953 187.865212,218.11734 C188.359567,217.820727 188.853922,217.622985 189.249406,217.326372 C189.447148,217.721856 189.64489,218.018469 189.941503,218.413953 C192.215536,221.577825 195.082795,223.654116 197.653442,224.148471 C195.082796,225.829278 192.413279,227.411214 189.64489,228.795408 C190.336987,226.323633 190.040374,222.863148 188.458438,219.20492 L188.458438,219.204921 Z M217.823127,187.368457 C217.427643,187.170715 217.13103,186.972973 216.735546,186.775231 C216.933288,186.280876 217.229901,185.786521 217.427643,185.292166 C217.823127,185.489908 218.218611,185.588779 218.614095,185.68765 C220.492644,186.280876 222.371193,186.577489 224.052,186.577489 C224.744097,186.577489 225.436194,186.478618 226.128291,186.379747 C226.919259,186.280876 227.611356,185.984263 228.303453,185.786521 C227.215872,188.752651 225.930549,191.521039 224.447484,194.289428 C223.557645,191.916524 221.283612,189.345878 217.823127,187.368458 L217.823127,187.368457 Z M236.509747,161.266511 L244.122815,178.470066 L229.786519,190.730071 C233.741359,181.633938 236.114263,171.746838 236.509747,161.266511 Z M232.357165,146.139247 C230.280874,144.656182 226.820389,143.865214 222.865548,144.260698 C222.470064,144.260698 222.07458,144.359569 221.679096,144.45844 C221.580225,143.964085 221.481354,143.46973 221.382483,142.876504 C221.777967,142.777633 222.173451,142.678762 222.568935,142.579891 C225.139581,141.690052 227.512485,140.404729 229.094421,138.822793 C229.687647,138.229567 230.083131,137.636341 230.478615,137.043115 C231.269583,139.910374 231.96168,142.975375 232.357164,146.139248 L232.357165,146.139247 Z M229.489906,100.955197 C231.071842,102.141649 232.85152,102.932617 234.927811,103.130359 C235.323295,103.130359 235.718779,103.22923 236.114263,103.22923 C238.586038,103.22923 240.860071,102.438262 242.837491,100.856326 C246.495718,97.989067 247.68217,93.144387 246.297976,88.991805 L253.317817,90.277128 C246.001362,109.359232 235.125552,119.839559 230.280872,123.794399 L229.489904,100.955196 L229.489906,100.955197 Z M254.4054,87.212127 L244.913783,85.432449 L245.309267,75.74309 C248.868623,75.347606 252.625722,75.149864 256.580562,75.149864 C256.976046,75.149864 257.37153,75.149864 257.767014,75.149864 C256.877175,79.500188 255.690723,83.5539 254.4054,87.212127 L254.4054,87.212127 Z M241.749911,83.356158 C237.992813,81.082125 233.049262,81.180996 229.391035,84.147126 C225.436195,87.310998 224.348614,92.748904 226.326034,97.099228 L204.178928,91.265839 C209.023607,87.508741 221.679096,79.203576 241.947653,76.336317 L241.749911,83.356158 Z M189.941503,97.593583 C189.743761,97.890196 189.546019,98.28568 189.249406,98.681164 C188.755051,98.384551 188.260696,98.087938 187.865212,97.890196 C188.062954,97.494712 188.260696,97.198099 188.458438,96.802615 C190.040374,93.243259 190.435858,89.782774 189.64489,87.310998 C192.413278,88.695192 195.082795,90.277128 197.653442,91.957935 C195.082796,92.353419 192.215537,94.42971 189.941503,97.593582 L189.941503,97.593583 Z M176.593917,91.463581 C176.396175,91.859065 176.297304,92.254549 176.099562,92.650033 C175.605207,92.452291 175.110852,92.254549 174.616497,92.155678 C174.715368,91.760194 174.814239,91.36471 174.91311,90.969226 C175.704078,87.113257 175.308594,83.652771 174.023271,81.378738 C177.088272,82.169706 180.054402,83.158416 182.921662,84.245997 C180.548758,85.234707 178.175854,87.904224 176.593918,91.46358 L176.593917,91.463581 Z M156.621974,63.384215 C161.367782,62.197763 164.828268,58.045181 164.828268,52.903888 C164.828268,48.256951 161.862138,44.30211 157.709556,42.819045 L163.04859,38.172108 C173.430046,55.771147 174.81424,70.79954 174.913111,77.028414 L156.621975,63.384215 L156.621974,63.384215 Z M154.051328,41.731465 L146.734873,35.403721 C148.811164,32.140978 151.282939,28.680493 154.051328,25.318878 C156.819716,28.779363 159.291491,32.140977 161.367783,35.403721 L154.051328,41.731465 Z M145.054066,38.172109 L150.3931,42.819046 C146.240518,44.302111 143.274388,48.256951 143.274388,52.903889 C143.274388,57.94631 146.833744,62.197764 151.480682,63.384216 L133.090675,77.028415 C133.189546,70.898413 134.57374,55.87002 145.054067,38.172109 L145.054066,38.172109 Z M134.079384,81.279868 C132.794061,83.553901 132.398577,87.014386 133.189545,90.870356 C133.288416,91.26584 133.387287,91.661324 133.486158,92.056808 C132.991803,92.25455 132.497448,92.353421 132.003093,92.551163 C131.904222,92.155679 131.70648,91.760195 131.508738,91.364711 C129.926802,87.805355 127.553898,85.234709 125.180994,84.147128 C128.048253,83.059547 131.014383,82.070837 134.079385,81.279869 L134.079384,81.279868 Z M119.94083,66.449217 C119.149862,70.601799 118.853249,74.161156 118.655507,77.028415 C116.282603,77.621641 114.00857,78.412609 111.932279,79.302448 L111.932279,79.302448 C109.361633,77.52277 106.000019,75.446479 101.748565,73.271317 C106.889857,69.61309 113.118731,67.240186 119.94083,66.449218 L119.94083,66.449217 Z M118.655507,80.390029 C118.655507,81.675352 118.754378,82.664062 118.754378,83.356159 C118.457765,83.553901 118.062281,83.652772 117.765668,83.850514 C117.172442,83.257288 116.282603,82.565191 115.096151,81.576481 C116.183732,81.180997 117.370184,80.785513 118.655507,80.390029 Z M118.556636,87.212128 C117.765668,89.683903 118.161152,93.144388 119.743088,96.703745 C119.94083,97.099229 120.138572,97.494713 120.336314,97.791326 C119.841959,98.087939 119.446475,98.285681 118.95212,98.582294 C118.754378,98.18681 118.457765,97.890197 118.260023,97.593584 C115.98599,94.429712 113.118731,92.353421 110.646955,91.859066 C113.11873,90.079388 115.788247,88.596323 118.556636,87.212129 L118.556636,87.212128 Z M81.67775,97.099229 C83.754041,92.748905 82.567589,87.310999 78.612749,84.147127 L78.612749,84.147127 C74.954522,81.279868 70.010971,81.082126 66.253873,83.356159 L65.95726,76.237447 C86.225816,79.104706 98.881305,87.409871 103.725985,91.166969 L81.67775,97.099229 L81.67775,97.099229 Z M62.694517,75.841963 L63.090001,85.531322 L53.598384,87.311 C52.313061,83.652773 51.22548,79.599061 50.23677,75.347608 C54.685965,75.149866 58.838548,75.446479 62.694517,75.841963 L62.694517,75.841963 Z M61.804678,89.090678 C61.310323,90.573743 61.112581,92.155679 61.310323,93.737615 C61.606936,96.604874 63.090001,99.17552 65.265163,100.955198 C67.143712,102.537134 69.516616,103.328102 71.988391,103.328102 C72.383875,103.328102 72.779359,103.328102 73.174843,103.229231 C75.152263,103.031489 77.030812,102.240521 78.612748,101.054069 L77.82178,123.893272 C73.075972,119.938432 62.10129,109.556976 54.784835,90.376001 L61.804676,89.090678 L61.804678,89.090678 Z M77.624039,136.944245 C77.920652,137.537471 78.415007,138.130697 79.008233,138.723923 C80.590169,140.305859 82.864202,141.690053 85.533719,142.481021 C85.929203,142.579892 86.324687,142.678763 86.720171,142.777634 C86.6213,143.271989 86.522429,143.766344 86.423558,144.35957 C86.028074,144.260699 85.63259,144.260699 85.237106,144.161828 C81.282266,143.766344 77.920651,144.458441 75.745489,146.040377 C76.140973,142.975376 76.83307,139.910375 77.624038,136.944244 L77.624039,136.944245 Z M61.310323,176.591519 C59.135161,172.241195 54.191611,169.76942 49.24806,170.857001 L49.24806,170.857001 C44.699994,171.845711 41.536121,175.70168 40.942895,180.052005 L35.208377,175.899423 C50.039028,161.85974 64.474195,157.113932 70.505326,155.729738 L61.310322,176.59152 L61.310323,176.591519 Z M32.934344,178.173455 L40.745154,183.907973 L36.197088,192.41088 C32.538861,191.125557 28.682891,189.543621 24.728051,187.566201 C27.397568,184.006845 30.165956,180.941844 32.934345,178.173455 L32.934344,178.173455 Z M42.623703,187.170717 C43.513542,188.45604 44.601123,189.642492 45.886446,190.43346 C47.666124,191.521041 49.544673,192.114267 51.620964,192.114267 C52.411932,192.114267 53.2029,192.015396 53.993868,191.817654 C56.762256,191.224428 59.13516,189.44475 60.717096,187.071846 C61.804677,185.391039 62.299032,183.413619 62.397903,181.436199 L79.7992,196.26685 C73.768069,197.552173 58.838547,199.628464 39.262087,193.399591 L42.623701,187.170718 L42.623703,187.170717 Z M89.093076,200.814916 C91.367109,200.814916 94.036626,200.023948 96.706144,198.540883 C97.101628,198.343141 97.398241,198.145399 97.793725,197.848786 C98.090338,198.24427 98.386951,198.738625 98.683564,199.134109 C98.386951,199.430722 97.991467,199.628464 97.694854,199.925077 C94.827595,202.594594 93.047917,205.560724 92.751304,208.131371 C90.773884,205.758467 88.994206,203.187821 87.313399,200.617174 C87.906625,200.814916 88.499851,200.814916 89.093077,200.814916 L89.093076,200.814916 Z M106.395502,209.614436 C106.692115,209.317823 106.988728,209.02121 107.285341,208.724597 C107.680825,209.120081 108.076309,209.416694 108.471793,209.812178 C108.17518,210.108791 107.977438,210.504275 107.680825,210.800888 C105.406792,213.96476 104.319211,217.227503 104.615824,219.79815 C102.24292,217.82073 99.870016,215.84331 97.694854,213.569277 C100.2655,213.569277 103.528243,212.185083 106.395503,209.614437 L106.395502,209.614436 Z M103.627114,262.708167 L107.483083,271.606558 C104.121469,273.682849 100.562113,275.660269 96.508401,277.538818 C95.519691,273.287365 94.728723,269.134782 94.333239,265.278813 L103.627114,262.708167 Z M110.251471,269.826879 L107.483083,263.301393 C107.878567,263.301393 108.17518,263.400264 108.570664,263.400264 C112.624375,263.400264 116.480345,261.126231 118.260023,257.270262 C119.545346,254.699616 119.644217,251.733486 118.754378,249.063968 C118.062281,247.185419 116.9747,245.504612 115.392764,244.31816 L137.836483,239.967836 C134.969224,245.504612 127.257285,258.456714 110.251472,269.82688 L110.251471,269.826879 Z M141.099225,236.111866 C141.692451,235.716382 142.186806,235.222027 142.681161,234.52993 C144.065355,232.750252 145.152936,230.377348 145.746162,227.707831 C145.845033,227.312347 145.943904,226.916863 145.943904,226.521379 C146.438259,226.62025 147.031485,226.62025 147.52584,226.719121 C147.52584,227.114605 147.52584,227.510089 147.52584,227.905573 C147.52584,231.860413 148.613421,235.123156 150.393099,237.100577 C147.328098,237.001706 144.164226,236.606222 141.099224,236.111867 L141.099225,236.111866 Z M156.028747,243.724934 C154.743424,243.626063 153.556972,243.428321 152.271649,243.230579 C152.864875,242.044127 153.161488,241.154288 153.458101,240.462191 C153.655843,240.462191 153.853585,240.462191 154.051327,240.462191 C154.249069,240.462191 154.446811,240.462191 154.644553,240.462191 C154.941166,241.253159 155.33665,242.34074 156.028747,243.724934 L156.028747,243.724934 Z M160.477942,226.719121 C160.972297,226.719121 161.565523,226.62025 162.059878,226.521379 C162.158749,226.916863 162.158749,227.312347 162.25762,227.707831 C163.048588,231.5638 164.828266,234.628801 166.904557,236.111867 C163.839556,236.606222 160.774555,236.902835 157.610682,237.100577 C159.39036,235.222028 160.477941,231.860414 160.477941,227.905573 C160.477941,227.510089 160.477941,227.114605 160.477941,226.719121 L160.477942,226.719121 Z M192.808761,244.219289 C189.051663,247.28429 187.76634,252.623325 189.941502,257.171391 C191.226825,259.742037 193.401987,261.719457 196.071504,262.609296 C197.257956,263.00478 198.444408,263.202522 199.63086,263.202522 C200.026344,263.202522 200.322957,263.202522 200.718441,263.103651 L197.950053,269.629137 C180.94424,258.258971 173.13343,245.306869 170.463913,239.770093 L192.808761,244.219288 L192.808761,244.219289 Z M204.47554,262.708167 L213.769415,265.278813 C213.27506,269.134782 212.582963,273.287365 211.594253,277.538818 C207.639413,275.660269 203.981185,273.682849 200.619571,271.606558 L204.47554,262.708167 L204.47554,262.708167 Z M214.164899,262.01607 L207.3428,260.137521 C208.430381,259.04994 209.32022,257.665746 209.814575,256.182681 C210.803285,253.513164 210.605543,250.547034 209.32022,247.976387 C208.034897,245.405741 205.859735,243.428321 203.190218,242.538482 C201.311669,241.846385 199.334249,241.747514 197.356829,242.142998 L207.936027,221.874442 C210.605544,227.411218 215.845708,241.549772 214.1649,262.016071 L214.164899,262.01607 Z M203.48683,219.79815 C203.783443,217.227504 202.695862,213.964761 200.421829,210.800888 C200.224087,210.504275 199.927474,210.108791 199.630861,209.812178 C200.026345,209.416694 200.421829,209.120081 200.817313,208.724597 C201.113926,209.02121 201.410539,209.317823 201.707152,209.614436 C204.574411,212.185082 207.837154,213.668147 210.407801,213.668147 C208.232639,215.843309 205.958606,217.9196 203.486831,219.798149 L203.48683,219.79815 Z M219.602804,212.481695 C219.009578,211.295243 218.515223,210.405404 218.21861,209.812178 C218.416352,209.515565 218.614094,209.218952 218.910707,209.02121 C219.701675,209.218952 220.888127,209.614436 222.371192,209.911049 C221.481353,210.800888 220.591514,211.690727 219.602804,212.481695 Z M215.25248,208.230242 C215.153609,207.538145 215.054738,206.846048 214.758125,206.05508 C213.967157,203.978789 212.385221,201.803627 210.407801,199.925078 C210.111188,199.628465 209.814575,199.430723 209.419091,199.13411 C209.715704,198.738626 210.012317,198.244271 210.30893,197.848787 C210.704414,198.046529 211.001027,198.343142 211.396511,198.540884 C214.066028,200.12282 216.735545,200.814917 219.009579,200.814917 C219.602805,200.814917 220.196031,200.716046 220.690386,200.617175 C219.009579,203.286692 217.229901,205.857338 215.252481,208.230243 L215.25248,208.230242 Z M245.70475,181.436199 C245.70475,183.413619 246.297976,185.292168 247.385557,187.071846 C248.868622,189.543621 251.340397,191.224428 254.108785,191.817654 C254.899753,192.015396 255.690721,192.114267 256.481689,192.114267 C258.459109,192.114267 260.436529,191.521041 262.216207,190.43346 C263.600401,189.543621 264.687982,188.45604 265.47895,187.170717 L268.840564,193.39959 C249.362976,199.628463 234.334583,197.651043 228.303451,196.266849 L245.704748,181.436198 L245.70475,181.436199 Z M272.004438,192.31201 L267.456372,183.809103 L275.267182,178.074585 C278.03557,180.842973 280.803958,183.907974 283.473476,187.467331 C279.518636,189.444751 275.662666,191.026687 272.004439,192.31201 L272.004438,192.31201 Z M267.060888,179.953134 C266.467662,175.60281 263.30379,171.845711 258.755723,170.75813 C253.812173,169.670549 248.868622,172.142324 246.69346,176.492648 L237.498456,155.531995 C243.529587,157.01506 257.865883,161.661997 272.795405,175.70168 L267.060887,179.953133 L267.060888,179.953134 Z M234.334585,139.119408 C235.026682,138.625053 235.916521,137.932956 237.201844,137.043117 C237.399586,138.229569 237.498457,139.514892 237.597328,140.800215 C236.312005,140.503602 235.323295,140.30586 234.631198,140.206989 C234.532327,139.811505 234.433456,139.416021 234.334585,139.119408 L234.334585,139.119408 Z M240.860071,141.591183 C240.7612,139.218279 240.563458,136.845375 240.069103,134.571342 C242.442007,132.495051 245.210395,129.627792 248.176526,126.068435 C250.648301,131.802953 251.53814,138.32844 250.846043,145.24941 C246.990074,143.469732 243.529588,142.28328 240.860071,141.591183 L240.860071,141.591183 Z M258.063626,112.028752 C259.250078,110.051332 260.43653,107.975041 261.622982,105.701008 C261.622982,105.701008 261.622982,105.701008 261.721853,105.701008 C263.897015,106.986331 289.109122,122.706821 273.487503,158.300384 C270.916857,156.322964 268.346211,154.642157 265.874435,153.060221 C270.224759,137.438602 267.3575,122.50908 258.063625,112.028753 L258.063626,112.028752 Z M272.993148,63.186475 C263.106047,110.446816 240.069103,130.715373 233.543616,135.658923 C232.752648,132.890535 231.862809,130.221018 230.874099,127.650371 C235.718778,124.189886 254.702012,108.469396 261.524111,73.963414 L261.919595,72.084865 L259.942175,71.985994 C224.744097,70.997284 205.167637,86.025677 200.718442,89.980517 C198.444409,88.398581 196.071505,86.915516 193.59973,85.531322 C199.729732,80.192288 224.546355,62.296635 272.993148,63.186474 L272.993148,63.186475 Z M154.051327,5.940162 C184.80021,43.115661 186.382146,73.765673 186.085533,81.971966 C183.514887,80.884385 180.84537,79.895675 178.175852,79.104707 C178.472465,73.172447 177.97811,48.553566 155.336649,21.660652 L154.051326,20.177587 L152.766003,21.660652 C130.025671,48.553566 129.630187,73.073576 129.827929,79.104707 C127.158412,79.895675 124.488895,80.884385 121.918248,81.971966 C121.720506,73.666801 123.203571,43.11566 154.051325,5.940162 L154.051327,5.940162 Z M114.601795,85.531323 C112.13002,86.915517 109.757116,88.398582 107.384212,89.980518 C102.935017,86.124549 83.457428,70.997285 48.160479,72.084866 L46.183059,72.183737 L46.578543,74.062286 C53.400642,108.667138 72.383876,124.288757 77.228555,127.749243 C76.239845,130.319889 75.251135,132.989406 74.559038,135.757795 C67.934681,130.814245 44.996607,110.644559 35.109506,63.285347 C83.457428,62.296637 108.274051,80.192289 114.601796,85.531324 L114.601795,85.531323 Z M72.779359,143.667475 C72.285004,146.435863 71.988391,149.204251 71.790649,152.071511 C65.95726,153.159092 42.030476,158.992481 20.87208,187.170718 L19.685628,188.752654 L21.366435,189.642493 C39.163216,198.837497 54.685964,201.210401 65.759517,201.210401 C74.163553,201.210401 79.996942,199.925078 82.468717,199.232981 C83.852911,201.704756 85.434847,204.07766 87.016783,206.351693 C79.107102,208.427984 48.951445,213.86589 5.645944,192.015397 C35.208375,153.554575 64.770806,145.249411 72.779358,143.667475 L72.779359,143.667475 Z M92.158076,212.481696 C94.036625,214.557987 96.014045,216.634278 98.090336,218.512827 C95.321948,223.654119 84.940492,246.097838 93.740012,280.208335 L94.234367,282.086884 L96.014045,281.295916 C128.147122,266.95962 139.220675,245.010256 141.593579,239.47348 C144.361967,239.868964 147.130355,240.165577 149.997615,240.264448 C146.636001,247.778645 132.101963,274.671558 88.104365,294.841244 C76.437586,248.075258 88.400978,219.79815 92.158076,212.481695 L92.158076,212.481696 Z M219.998288,295.038987 C176.198432,274.869302 161.466652,247.976388 158.105038,240.462191 C160.972297,240.36332 163.740685,240.066707 166.509074,239.572352 C168.881978,245.109128 179.955531,267.058492 212.088608,281.394788 L213.868286,282.185756 L214.362641,280.307207 C223.162161,246.097839 212.879576,223.752991 210.012317,218.611699 C212.088608,216.73315 214.066028,214.656859 215.845706,212.580568 C219.701675,219.798151 231.665067,248.075259 219.998288,295.038988 L219.998288,295.038987 Z M220.986998,206.153952 C222.667805,203.879919 224.15087,201.507015 225.535064,199.03524 C228.006839,199.727337 233.840229,201.01266 242.244264,201.01266 C253.317817,201.01266 268.840565,198.639756 286.637346,189.444752 L288.318153,188.554913 L287.131701,186.972977 C265.973306,158.79474 242.046522,152.961351 236.213132,151.87377 C236.01539,149.006511 235.619906,146.238123 235.224422,143.469734 C243.331845,145.05167 272.795405,153.257964 302.258965,191.619914 C259.151206,213.569278 228.896678,208.230243 220.986997,206.153952 L220.986998,206.153952 Z" id="svg_33" fill="#70146A" fill-rule="nonzero"></path>
        </g>
    </g>
</svg>